<svg width="104" height="196" viewBox="0 0 104 196" fill="none" xmlns="http://www.w3.org/2000/svg">
<path d="M30.1701 179.199L26.2201 188.689L19.7801 185.269L23.7101 175.959L30.1701 179.199Z" fill="#FCC9A7"/>
<path d="M28.3901 188.129C28.3901 187.559 27.9001 187.189 27.4101 187.399C26.4501 187.809 24.8701 188.159 22.9801 187.309C21.0201 186.429 20.6601 184.979 20.6501 184.029C20.6501 183.529 20.2901 183.149 19.8401 183.219L5.47011 185.289C4.60011 185.419 3.78012 185.919 3.20012 186.699C2.65012 187.429 2.91011 188.489 3.68011 188.729L25.1301 195.249C25.9701 195.509 26.8901 194.899 27.1401 193.919L28.3501 189.119C28.3701 189.039 28.3801 188.959 28.3801 188.879L28.3901 188.129Z" fill="#1F252A"/>
<path d="M88.4001 156.179L97.4001 161.139L93.3101 167.169L84.4801 162.249L88.4001 156.179Z" fill="#FCC9A7"/>
<path d="M97.0801 158.919C96.5101 158.859 96.0901 159.309 96.2401 159.809C96.5401 160.799 96.7201 162.419 95.6701 164.199C94.5801 166.049 93.1001 166.259 92.1501 166.149C91.6501 166.099 91.2401 166.409 91.2501 166.859L91.7401 181.369C91.7701 182.249 92.1801 183.119 92.8901 183.779C93.5501 184.399 94.6401 184.269 94.9601 183.519L103.77 162.909C104.12 162.099 103.61 161.119 102.67 160.769L98.0301 159.039C97.9501 159.009 97.8701 158.989 97.7901 158.979L97.0801 158.919Z" fill="#1F252A"/>
<path d="M34.9301 87.5193L38.4001 109.779L55.9401 141.309L86.1401 167.569L93.1801 155.119L69.2301 132.779L55.1801 87.8993L34.9301 87.5193Z" fill="#092330"/>
<path d="M63.4301 86.2493C63.4301 86.2493 66.9201 92.8493 61.5001 103.389L44.6701 135.509L31.8401 184.189L19.1001 179.739L28.2501 130.509L44.4701 92.0893L34.9301 87.5193L63.4301 86.2493Z" fill="#0C2C40"/>
<path d="M26.7401 23.6193C28.9601 26.0493 32.7301 26.2193 35.1501 24.0093C37.5801 21.7893 37.7501 18.0193 35.5401 15.5893C33.3201 13.1593 29.5601 12.9893 27.1201 15.1993C24.6901 17.4293 24.5201 21.1893 26.7401 23.6193Z" fill="#FCC9A7"/>
<path d="M21.9801 26.6793L27.1601 20.4393L31.2901 24.5893L26.4301 30.5393L21.9801 26.6793Z" fill="#FCC9A7"/>
<path d="M33.6701 12.0693L28.9201 18.4293C28.3001 19.2593 28.3201 20.4093 28.9701 21.2093L32.8201 25.9593C33.7201 27.0693 35.4001 27.0793 36.3101 25.9893L41.6801 19.5993C42.4201 18.7193 42.3801 17.4193 41.5901 16.5793L37.1201 11.8593C36.1601 10.8493 34.5101 10.9393 33.6701 12.0693Z" fill="#1C2226"/>
<path d="M38.5801 34.4893L19.7501 43.9393L30.0901 27.9893L23.2701 22.0893L1.71011 51.6293C-0.249889 54.1693 0.510112 57.8693 3.32011 59.4193C4.75011 60.2093 6.47011 60.2893 7.97011 59.6293L35.8901 48.5393L38.5801 34.4893Z" fill="#F7ECE7"/>
<path d="M31.8401 43.5593C31.8401 43.5593 35.1701 69.6693 34.9301 87.5193C34.9301 87.5193 44.9201 91.9193 66.1001 85.4893L60.8601 36.9393L50.6601 33.5093L38.5801 34.4893L31.8401 43.5593Z" fill="#F7ECE7"/>
<path d="M42.0001 31.9493L42.2601 33.6493C42.2801 33.7693 42.2401 33.8993 42.1501 33.9893L39.5401 36.7593C39.3001 37.0093 38.8801 36.8693 38.8401 36.5293L38.5701 34.4893C38.5501 34.3593 38.6001 34.2293 38.7001 34.1393L41.3101 31.7093C41.5601 31.4893 41.9601 31.6193 42.0001 31.9493Z" fill="#FCF3F0"/>
<path d="M45.4901 36.3393C48.5901 36.0893 50.9001 33.3593 50.6501 30.2593L49.9001 21.1793L38.6601 22.0993L40.9801 34.6493C41.3501 36.2493 42.3801 36.5893 45.4901 36.3393Z" fill="#FCC9A7"/>
<path d="M50.2801 24.3593C50.2801 24.3593 47.8601 31.2393 42.9501 30.3893C38.4401 29.6093 38.6601 22.0993 38.6601 22.0993L50.2801 24.3593Z" fill="#F4BE9A"/>
<path d="M43.7301 27.8893L44.7301 27.7793C49.7101 27.2393 53.3201 22.7593 52.7801 17.7793L52.1701 12.0993C51.6301 7.11928 47.1501 3.50926 42.1701 4.04926L41.1701 4.15926C36.1901 4.69926 32.5801 9.17928 33.1201 14.1593L33.7301 19.8393C34.2701 24.8293 38.7501 28.4293 43.7301 27.8893Z" fill="#FCC9A7"/>
<path d="M43.7301 27.8893L44.7301 27.7793C49.7101 27.2393 53.3201 22.7593 52.7801 17.7793L52.1701 12.0993C51.6301 7.11928 47.1501 3.50926 42.1701 4.04926L41.1701 4.15926C36.1901 4.69926 32.5801 9.17928 33.1201 14.1593L33.7301 19.8393C34.2701 24.8293 38.7501 28.4293 43.7301 27.8893Z" fill="#FCC9A7"/>
<path d="M52.5801 15.9793C51.9001 15.9093 49.0501 18.0693 48.3101 17.1293C47.2901 15.8293 46.3601 13.4593 47.6801 10.9993C47.9001 10.5893 47.9601 10.1093 47.8201 9.65929C47.5601 8.84929 46.8601 7.90928 44.9301 8.58928C41.8401 9.67928 34.8901 13.1793 32.8801 8.16927C30.3401 1.85927 50.3201 3.61928 50.3201 3.61928L54.8701 10.1993L52.9201 19.5793L52.5801 15.9793Z" fill="#1C2226"/>
<path d="M49.8001 16.9293C49.9901 18.7093 51.5901 19.9993 53.3701 19.7993C55.1501 19.6093 56.4401 18.0093 56.2401 16.2293C56.0501 14.4493 54.4501 13.1593 52.6701 13.3593C50.8901 13.5593 49.6101 15.1493 49.8001 16.9293Z" fill="#FCC9A7"/>
<path d="M44.4701 38.2693L47.0201 77.5793L42.2701 82.0393L39.4501 77.7193L42.2701 37.4893L44.4701 38.2693Z" fill="#0C2C40"/>
<path d="M40.6701 35.5593L41.0601 35.0193L40.9601 34.5493H46.5801L47.0201 36.0193L43.2801 39.3193L40.6701 35.5593Z" fill="#0C2C40"/>
<path d="M50.2901 29.7293L44.9701 33.3493C44.3701 33.7593 44.2901 34.6193 44.8101 35.1293L48.9901 39.2393C49.4601 39.6993 50.2301 39.6793 50.6701 39.1793L54.8801 34.4493C55.2901 33.9893 55.2701 33.2793 54.8301 32.8493L51.7501 29.8393C51.3601 29.4693 50.7501 29.4193 50.2901 29.7293Z" fill="#FCF3F0"/>
<path d="M27.7501 31.5993L19.7901 26.7993" stroke="#EADDD8" stroke-width="0.7599" stroke-miterlimit="10" stroke-linecap="round" stroke-linejoin="round"/>
<path d="M42.2501 69.2993L39.4601 99.1293C39.3501 100.249 40.1201 101.269 41.2301 101.489L75.4401 108.029C76.7001 108.269 77.8901 107.389 78.0301 106.119L81.1601 77.7693C81.2801 76.6693 80.5601 75.6493 79.4801 75.3893L44.9301 67.3793C43.6401 67.0693 42.3801 67.9793 42.2501 69.2993Z" fill="#AFAFAF"/>
<path d="M44.6801 69.8293L41.8901 99.6593C41.7901 100.779 42.5501 101.799 43.6601 102.019L77.8701 108.559C79.1301 108.799 80.3201 107.919 80.4601 106.649L83.5901 78.2993C83.7101 77.1993 82.9901 76.1793 81.9101 75.9193L47.3601 67.8993C46.0601 67.5993 44.8001 68.5093 44.6801 69.8293Z" fill="#D1D1D1"/>
<path d="M57.5901 97.2793C54.8401 94.7593 50.5601 94.9492 48.0401 97.6992C45.5201 100.449 45.7101 104.729 48.4601 107.249C51.2101 109.769 55.4901 109.579 58.0101 106.829C60.5301 104.069 60.3401 99.7993 57.5901 97.2793Z" fill="#FCC9A7"/>
<path d="M62.6601 93.3393L57.4401 100.919L52.3601 96.6393L57.2401 89.4293L62.6601 93.3393Z" fill="#FCC9A7"/>
<path d="M60.8701 36.9393C60.8701 36.9393 68.5201 37.7093 70.7401 50.2193L79.5401 68.4993C79.7801 69.2993 79.9401 70.1193 80.0201 70.9393L61.5101 97.5293L53.1601 92.5793L68.1301 68.5793L59.0401 54.1893L60.8701 36.9393Z" fill="#F7ECE7"/>
<path d="M55.8801 88.9893L64.3101 93.5093" stroke="#EADDD8" stroke-width="0.7599" stroke-miterlimit="10" stroke-linecap="round" stroke-linejoin="round"/>
<path d="M63.4901 61.2393L58.1001 51.8593" stroke="#EADDD8" stroke-width="0.7599" stroke-miterlimit="10" stroke-linecap="round" stroke-linejoin="round"/>
<path d="M34.9401 10.3993C31.1201 8.66928 31.9201 4.20927 32.7901 2.79927C32.7901 2.79927 32.9601 5.30928 34.6701 4.72928C34.6701 4.72928 34.4401 0.989272 39.4501 0.0192719C39.4501 0.0192719 37.6001 3.37927 44.1901 2.73927C52.2801 1.94927 52.7501 7.06928 52.3001 13.4293L49.8201 11.6493L47.9001 7.21928H41.3501L34.9401 10.3993Z" fill="#1C2226"/>
</svg>
