<svg width="131" height="193" viewBox="0 0 131 193" fill="none" xmlns="http://www.w3.org/2000/svg">
<path d="M46.7601 174.709L48.9401 187.469L55.2601 188.079L53.0701 173.829L46.7601 174.709Z" fill="#FCC9A7"/>
<path d="M48.0701 186.589C48.2001 186.139 48.6701 185.969 49.0101 186.239C49.6601 186.779 50.8301 187.429 52.5001 187.199C54.2401 186.969 54.8601 185.909 55.0901 185.169C55.2101 184.779 55.5801 184.569 55.9101 184.719L67.7401 189.679C68.4001 189.979 68.9201 190.569 69.1901 191.309C69.4501 192.009 69.0001 192.779 68.3401 192.789L48.9601 192.909C48.2401 192.909 47.6601 192.229 47.7001 191.399L47.8701 187.359C47.8701 187.289 47.8801 187.229 47.9001 187.159L48.0701 186.589Z" fill="#1F252A"/>
<path d="M21.2101 115.999H18.6301V191.229H21.2101V115.999Z" fill="#2A272D"/>
<path d="M15.6201 100.529L34.1001 134.469L45.7901 181.619H56.4001L48.8301 129.219L15.6201 100.529Z" fill="#232322"/>
<path d="M30.8701 114.889H7.77011C4.46011 114.889 1.77011 112.209 1.77011 108.889C1.77011 105.579 4.45011 102.889 7.77011 102.889H30.8701C34.1801 102.889 36.8701 105.579 36.8701 108.889C36.8701 112.209 34.1801 114.889 30.8701 114.889Z" fill="#FFEEE3"/>
<path d="M31.0101 114.889H8.81009V117.109H31.0101V114.889Z" fill="#2A272D"/>
<path d="M31.0101 172.969H8.81009V175.189H31.0101V172.969Z" fill="#2A272D"/>
<path d="M18.7201 39.0593C14.2701 38.5193 10.0501 41.2093 8.35008 45.3493C6.91008 48.8393 5.71007 53.8993 6.99007 59.7693C10.8901 77.7393 8.56008 90.1693 8.56008 90.1693H29.6901L29.6101 65.6993C29.6101 65.6993 31.0701 62.8493 31.8601 59.1193C32.9701 53.8993 32.5501 53.2193 29.5001 48.5993L23.0101 40.6793C23.0201 40.6793 21.5701 39.3993 18.7201 39.0593Z" fill="#FFD686"/>
<path d="M57.1501 56.3993C58.5601 53.5793 61.9801 52.4393 64.8001 53.8493C67.6201 55.2593 68.7601 58.6793 67.3501 61.4993C65.9401 64.3193 62.5201 65.4593 59.7001 64.0493C56.8801 62.6493 55.7401 59.2193 57.1501 56.3993Z" fill="#FCC9A7"/>
<path d="M58.4001 54.7493L47.6601 64.9493L51.7401 69.4893L60.1101 62.3193L58.4001 54.7493Z" fill="#FCC9A7"/>
<path d="M11.4801 54.8893L30.9101 84.4193C31.6601 85.5493 33.2001 85.8193 34.2901 84.9993L57.7401 66.5793L52.9901 58.4293L34.8501 72.2893L22.1701 48.8393C20.4801 45.3193 15.9901 44.2493 12.8901 46.6093C10.3101 48.5693 9.70011 52.1893 11.4801 54.8893Z" fill="#FFD686"/>
<path d="M19.9401 43.5293C18.7101 43.5193 17.4001 43.0093 16.4301 42.5093C15.4701 42.0193 14.8701 41.0093 14.8801 39.9293L15.0801 20.0893L23.7501 20.1293L23.5501 39.7193C23.5401 41.9693 21.9201 43.5393 19.9401 43.5293Z" fill="#FCC9A7"/>
<path d="M23.6101 34.2193L20.0301 29.1493C20.0301 29.1493 17.8401 34.9393 23.5901 36.7193L23.6101 34.2193Z" fill="#F2C09E"/>
<path d="M31.4201 20.1693C31.3901 26.0793 26.5801 30.8393 20.6701 30.8093C14.7601 30.7793 10.0001 25.9693 10.0301 20.0593C10.0601 14.1493 14.8701 9.38925 20.7801 9.41925C26.6801 9.44925 31.4401 14.2593 31.4201 20.1693Z" fill="#FCC9A7"/>
<path d="M24.3701 34.2793C21.5701 34.2693 19.3001 31.9793 19.3201 29.1793L19.3501 21.8593L31.4101 20.1693L31.3801 27.3393C31.3601 31.1893 28.2301 34.2993 24.3701 34.2793Z" fill="#FCC9A7"/>
<path d="M31.0901 22.5593L33.4101 26.0093C33.7401 26.5693 33.3101 27.2593 32.6201 27.2593L29.9101 27.7593L31.0901 22.5593Z" fill="#FCC9A7"/>
<path d="M19.3601 24.7893L23.9101 24.6293C23.9101 24.6293 24.3001 20.6793 25.1901 19.7293C26.0801 18.7793 26.5301 14.5593 26.5301 14.5593C26.5301 14.5593 24.3801 17.1893 23.7501 19.9093L33.2801 19.6693C33.2801 19.6693 34.7001 8.10928 20.2701 7.54928C5.8301 6.98928 6.23009 20.6493 9.07009 23.3593C11.3301 25.5193 14.9901 30.8193 14.9901 30.8193C14.9901 30.8193 14.8201 24.9493 19.3601 24.7893Z" fill="#4C1827"/>
<path d="M22.6601 23.3893C22.7201 25.0793 21.4001 26.4893 19.7201 26.5493C18.0301 26.6093 16.6201 25.2893 16.5501 23.6093C16.4901 21.9193 17.8101 20.5093 19.4901 20.4393C21.1801 20.3793 22.5901 21.6993 22.6601 23.3893Z" fill="#FCC9A7"/>
<path d="M13.8401 6.06927C14.3001 9.85927 11.6101 13.2993 7.83011 13.7693C4.04011 14.2293 0.600097 11.5393 0.130097 7.74928C-0.329903 3.95928 2.36009 0.519275 6.15009 0.0592747C9.94009 -0.410725 13.3801 2.27927 13.8401 6.06927Z" fill="#4C1827"/>
<path d="M15.2201 41.2993C15.2201 41.2993 16.0501 43.8893 27.6301 46.2993L22.2501 38.9793L15.2201 41.2993Z" fill="#FCC9A7"/>
<path d="M19.9201 187.429L4.40009 192.739H35.4201L19.9201 187.429Z" fill="#2A272D"/>
<path d="M21.0901 155.619L12.6001 165.829L18.7001 168.149L27.2201 157.339L21.0901 155.619Z" fill="#FCC9A7"/>
<path d="M12.8901 164.439C13.1901 164.089 13.6901 164.109 13.8901 164.499C14.2701 165.259 15.0701 166.319 16.7001 166.779C18.3901 167.259 20.2401 165.779 20.7401 165.189C21.0001 164.879 21.4301 164.829 21.6701 165.109L32.0601 172.399C32.5401 172.939 32.7801 173.689 32.7401 174.479C32.7001 175.219 31.9801 175.749 31.3701 175.489L10.8101 170.289C10.1501 169.999 9.89009 169.139 10.2601 168.399L12.4001 165.059C12.4301 164.999 12.4701 164.939 12.5101 164.889L12.8901 164.439Z" fill="#1F252A"/>
<path d="M7.9501 90.1693C7.9501 90.1693 1.59008 104.649 24.1901 112.359L39.8101 126.869L15.6301 159.249L26.4401 163.159L55.8001 131.919C57.9701 129.389 58.0601 125.509 56.0101 122.869L29.7001 90.1593H7.9501V90.1693Z" fill="#383635"/>
<path d="M130.93 77.3793H53.7201V81.6793H130.93V77.3793Z" fill="#FFEEE3"/>
<path d="M72.7101 192.759V81.6793" stroke="#2A272D" stroke-width="2.2811" stroke-miterlimit="10"/>
<path d="M111.32 192.759V81.6793" stroke="#2A272D" stroke-width="2.2811" stroke-miterlimit="10"/>
<path d="M102.2 75.0393H70.0801V77.1193H102.2V75.0393Z" fill="#2A272D"/>
<path d="M102.2 77.1293L112.6 46.7693L110.42 46.2493L100.23 75.4093L102.2 77.1293Z" fill="#2A272D"/>
<path d="M29.4201 82.1593L13.9101 58.5793" stroke="#EFC375" stroke-width="0.7847" stroke-miterlimit="10" stroke-linecap="round" stroke-linejoin="round"/>
<path d="M30.3601 63.6593L24.4401 54.2993" stroke="#EFC375" stroke-width="0.7847" stroke-miterlimit="10" stroke-linecap="round" stroke-linejoin="round"/>
</svg>
