<svg width="98" height="153" viewBox="0 0 98 153" fill="none" xmlns="http://www.w3.org/2000/svg">
<path d="M90.2201 99.6993H59.4901V148.459H90.2201V99.6993Z" fill="#B2B2B2"/>
<path d="M59.6101 99.6993H28.8801V148.459H59.6101V99.6993Z" fill="#D1D1D1"/>
<path d="M43.5101 40.5693L42.2001 66.7793L36.0401 85.9993H47.1301L52.8901 69.4393L54.6901 50.6193L43.5101 40.5693Z" fill="#F7EBE7"/>
<path d="M43.2001 132.179L45.4301 142.569L37.9401 143.459L35.8101 133.229L43.2001 132.179Z" fill="#FCC9A7"/>
<path d="M45.8801 141.629C45.6901 141.069 45.0901 140.869 44.6801 141.229C43.8801 141.939 42.4401 142.809 40.3101 142.599C38.1001 142.379 37.2701 141.079 36.9501 140.139C36.7801 139.649 36.3101 139.399 35.8901 139.609L22.4801 146.349C21.6701 146.759 21.0301 147.519 20.7101 148.469C20.4101 149.359 21.0101 150.319 21.8501 150.299L45.0201 149.659C45.9301 149.639 46.6301 148.739 46.5501 147.699L46.1701 142.599C46.1601 142.519 46.1501 142.429 46.1201 142.349L45.8801 141.629Z" fill="#1F252A"/>
<path d="M43.0701 81.9393H25.6801C25.6801 81.9393 15.0901 81.3493 14.4601 90.0393C13.8301 98.7293 29.9901 123.589 32.5201 136.869L47.0601 135.669L36.5901 99.5593L62.6301 99.7093C64.5601 99.7193 66.4801 99.4393 68.3001 98.8093C73.3701 97.0493 81.1101 94.5293 76.8901 80.5693L43.0701 81.9393Z" fill="#092330"/>
<path d="M56.4901 132.219L60.0301 144.639L52.5401 145.529L49.1001 133.269L56.4901 132.219Z" fill="#FCC9A7"/>
<path d="M60.4801 143.699C60.2901 143.139 59.6901 142.939 59.2801 143.299C58.4801 144.009 57.0401 144.879 54.9101 144.669C52.7001 144.449 51.8701 143.149 51.5501 142.209C51.3801 141.719 50.9101 141.469 50.4901 141.679L37.0801 148.419C36.2701 148.829 35.6301 149.589 35.3101 150.539C35.0101 151.429 35.6101 152.389 36.4501 152.369L60.0201 151.729C60.9301 151.709 61.6301 150.809 61.5501 149.769L60.7601 144.669C60.7501 144.589 60.7401 144.499 60.7101 144.419L60.4801 143.699Z" fill="#1F252A"/>
<path d="M63.8501 30.2693C64.2401 30.6493 81.6901 35.0993 81.6901 35.0993L77.9601 45.0093L58.8801 43.5693L63.8501 30.2693Z" fill="#F7EBE7"/>
<path d="M56.6501 32.6593C56.6501 32.6593 45.2801 36.8093 43.5101 40.5693C44.1201 45.8793 45.9901 50.9893 49.0701 55.3593C52.8501 60.7193 57.5201 69.9293 56.6601 81.9393H89.5301C89.5301 81.9393 87.7601 48.1493 78.0301 35.1793L56.6501 32.6593Z" fill="#F7EBE7"/>
<path d="M60.3801 38.0193C63.6101 37.3593 65.6901 34.2093 65.0301 30.9793L63.1001 21.5293L51.4101 23.9193L53.3401 33.3693C54.0001 36.5993 57.1501 38.6793 60.3801 38.0193Z" fill="#FCC9A7"/>
<path d="M63.9001 24.8293C63.9001 24.8293 62.6701 32.4893 56.7101 32.9493C51.4901 33.3493 51.9901 25.7993 51.9901 25.7993L63.9001 24.8293Z" fill="#F4BE9A"/>
<path d="M57.1801 28.7493L58.2101 28.5093C63.3801 27.3093 66.6001 22.1493 65.4001 16.9893L64.0401 11.0993C62.8401 5.92926 57.6801 2.70926 52.5201 3.90926L51.4901 4.14926C46.3201 5.34926 43.1001 10.5093 44.3001 15.6693L45.6601 21.5593C46.8601 26.7293 52.0201 29.9493 57.1801 28.7493Z" fill="#FCC9A7"/>
<path d="M62.1601 19.4393C61.9201 19.8493 61.69 20.4693 61.61 21.4093C61.52 22.5993 60.92 23.7293 59.92 24.3893C57.05 26.2893 54.8601 21.4793 50.6201 22.3293C50.6201 22.3293 48.9601 22.5793 48.6301 24.4293C48.3001 26.2693 45.99 23.0493 45.48 20.8493C44.97 18.6493 44.7101 31.7393 55.1501 30.6293C55.1501 30.6293 60.4201 30.4593 63.9701 25.0893C64.3601 24.4993 64.59 23.8093 64.61 23.0993C64.64 22.0493 64.4901 20.4593 63.4901 19.3193C63.1401 18.8993 62.4401 18.9593 62.1601 19.4393Z" fill="#1C2226"/>
<path d="M62.1701 16.4693C62.1701 16.4693 57.6601 14.9793 58.4201 8.38926C58.4201 8.38926 47.2201 18.9893 38.9201 11.2093C38.9201 11.2093 42.6301 10.2193 44.1601 7.67926C46.9501 3.04926 54.9701 -3.33073 61.3901 4.04927C61.3901 4.04927 69.2001 2.83927 66.9601 14.8693L62.1701 16.4693Z" fill="#1C2226"/>
<path d="M62.17 16.4693C62.6 18.3093 64.4401 19.4593 66.2801 19.0393C68.1301 18.6093 69.27 16.7693 68.85 14.9293C68.42 13.0893 66.5801 11.9393 64.7401 12.3593C62.8901 12.7893 61.74 14.6293 62.17 16.4693Z" fill="#FCC9A7"/>
<path d="M56.4701 37.6493L61.3001 37.7393L57.9201 44.7393L54.2701 38.0293L56.4701 37.6493Z" fill="#0C2C40"/>
<path d="M65.4401 30.5793L59.2201 37.8393L63.2701 42.4893L70.7201 32.2493C70.7201 32.2493 68.8101 29.1793 65.4401 30.5793Z" fill="#FFF7F3"/>
<path d="M56.4701 37.6493L52.8901 41.6893L50.3701 35.3893C50.3701 35.3893 51.0301 32.5593 53.0901 33.0993L56.4701 37.6493Z" fill="#FFF7F3"/>
<path d="M57.79 42.4793C57.79 42.4793 53.1201 54.6593 54.2801 71.9393L58.8801 76.1393L64.2501 70.9693L58.4601 41.6893L57.79 42.4793Z" fill="#0C2C40"/>
<path d="M66.5201 71.3993L56.5201 74.6893L55.8601 80.5593L69.1201 76.5993L66.5201 71.3993Z" fill="#FCC9A7"/>
<path d="M58.0101 78.5693C58.0101 81.9993 55.2301 84.7893 51.7901 84.7893C48.3601 84.7893 45.5701 82.0093 45.5701 78.5693C45.5701 75.1393 48.3501 72.3493 51.7901 72.3493C55.2201 72.3493 58.0101 75.1293 58.0101 78.5693Z" fill="#FCC9A7"/>
<path d="M56.6501 81.9393H39.2701C39.2701 81.9393 28.6801 81.3493 28.0501 90.0393C27.4201 98.7293 44.7701 125.189 47.3001 138.459L61.8401 137.259L50.1801 99.5493L76.2201 99.6993C78.1501 99.7093 80.0701 99.4293 81.8901 98.7993C86.9601 97.0393 94.7001 94.5193 90.4801 80.5593L56.6501 81.9393Z" fill="#0C2C40"/>
<path d="M4.2201 51.2093H34.2701C35.2601 51.2093 36.1101 51.8993 36.3201 52.8693L41.9801 79.4093C42.2601 80.7093 41.2601 81.9393 39.9301 81.9393H9.3801C8.3801 81.9393 7.52011 81.2293 7.33011 80.2493L2.17011 53.7093C1.91011 52.4093 2.9001 51.2093 4.2201 51.2093Z" fill="#B2B2B2"/>
<path d="M2.49008 51.2093H32.5301C33.5201 51.2093 34.3701 51.8993 34.5801 52.8693L40.2401 79.4093C40.5201 80.7093 39.5301 81.9393 38.1901 81.9393H7.65009C6.65009 81.9393 5.7901 81.2293 5.6001 80.2493L0.440097 53.7093C0.180097 52.4093 1.17008 51.2093 2.49008 51.2093Z" fill="#D1D1D1"/>
<path d="M41.1601 79.6693H61.6901C62.3201 79.6693 62.8201 80.1793 62.8201 80.7993C62.8201 81.4293 62.3101 81.9293 61.6901 81.9293H40.7601L41.1601 79.6693Z" fill="#B2B2B2"/>
<path d="M21.0901 65.8793C21.0901 67.6893 19.6301 69.1493 17.8201 69.1493C16.0101 69.1493 14.5501 67.6793 14.5501 65.8793C14.5501 64.0693 16.0201 62.6093 17.8201 62.6093C19.6301 62.6093 21.0901 64.0693 21.0901 65.8793Z" fill="white"/>
<path d="M74.5201 44.5393L85.5001 62.2693L59.2201 71.6493L62.8201 79.4293C62.8201 79.4293 85.2901 76.9093 96.1501 68.5393C97.1501 67.7693 97.6501 66.5193 97.4801 65.2693C96.9701 61.2693 94.7901 51.5593 85.5001 37.7593C83.6101 34.9493 79.8501 34.0993 76.9201 35.7993C73.8701 37.5593 72.8001 41.4593 74.5201 44.5393Z" fill="#F7EBE7"/>
<path d="M66.2101 69.1493L85.5001 62.2693L75.8501 46.6793" stroke="#EADDD8" stroke-width="0.7599" stroke-miterlimit="10" stroke-linecap="round" stroke-linejoin="round"/>
<path d="M53.1501 63.2793L48.4001 50.7393" stroke="#EADDD8" stroke-width="0.7599" stroke-miterlimit="10" stroke-linecap="round" stroke-linejoin="round"/>
<path d="M66.5201 78.8993C66.5201 78.8993 81.2801 77.0493 88.7201 72.7893" stroke="#EADDD8" stroke-width="0.7599" stroke-miterlimit="10" stroke-linecap="round" stroke-linejoin="round"/>
</svg>
